<svg width="56" height="56" viewBox="0 0 56 56" fill="none" xmlns="http://www.w3.org/2000/svg">
<path fill-rule="evenodd" clip-rule="evenodd" d="M41.3258 9.56153C42.8602 7.5157 39.0514 4.65911 37.517 6.70494C35.9826 8.75073 39.7917 11.6073 41.3258 9.56153ZM27.598 6.98796C22.9807 6.51193 17.8528 7.30667 13.3804 9.34466C8.90482 11.384 4.95432 14.7346 2.94239 19.4581C1.40164 23.0754 0.0629036 26.4126 0.00216227 30.7522C-0.0581535 35.0639 1.13837 40.1805 4.22404 47.4942C6.01485 51.7386 11.3468 53.5295 15.451 54.5125C20.1901 55.6474 25.4175 55.9442 28.6126 55.5067C31.2288 55.1483 34.1395 54.589 36.5807 52.6051C40.6836 49.2709 44.4289 45.5062 46.6633 41.5631C48.9205 37.5793 49.7478 33.1734 47.4929 28.9218C46.9 27.8036 45.9786 27.5184 44.9527 27.2009C44.5652 27.0809 44.1623 26.9563 43.7569 26.7804C39.651 24.9984 37.2001 22.935 37.0093 21.7371C36.8305 20.6145 37.0414 19.8176 37.2617 18.9858C37.3804 18.5384 37.5013 18.081 37.5659 17.5574C37.6451 16.9159 37.6361 15.4069 36.2107 14.6394C35.1101 14.0468 34.4068 12.8878 33.7508 11.8074C33.5892 11.5413 33.4306 11.2799 33.2696 11.0329C32.2039 9.39805 30.6409 7.30163 27.598 6.98796ZM14.9284 12.7419C11.0676 14.5012 7.93423 17.2653 6.37713 20.921C4.84504 24.5181 3.7847 27.2623 3.73516 30.8045C3.68521 34.3747 4.66715 38.9404 7.66378 46.0431C8.9283 49.0402 13.5198 50.211 16.3205 50.8818C20.7163 51.9346 25.4677 52.1691 28.1059 51.8077C30.6597 51.4579 32.6494 50.9894 34.2265 49.7077C38.1871 46.4888 41.5173 43.0721 43.4149 39.7227C44.5558 37.7095 46.7182 31.7201 43.4146 30.5423C36.4134 28.0463 34.577 25.612 33.562 23.1704C32.8864 21.5455 32.9593 19.8482 33.4399 18.1907C33.5116 17.9434 33.5816 17.7019 33.7236 17.4813C32.9215 16.9136 32.2978 16.2236 31.7869 15.5499C31.4663 15.1273 31.1606 14.6147 30.8436 14.083C29.9352 12.5596 28.9329 10.8787 27.2152 10.7016C23.2534 10.2932 18.7924 10.9812 14.9284 12.7419ZM45.5758 17.0553C46.4453 15.0094 42.7631 12.8043 41.3724 14.5424C39.5039 16.8783 44.4364 19.7362 45.5758 17.0553ZM49.9031 11.4015C52.1416 11.4561 52.8446 7.12953 50.6669 6.50733C47.8139 5.69218 47.0083 11.3309 49.9031 11.4015ZM49.5988 21.9693C51.7593 22.0032 52.438 19.3233 50.3362 18.9379C47.5821 18.433 46.8048 21.9256 49.5988 21.9693ZM22.0535 18.9668C20.4164 20.3885 18.8604 18.4633 18.5902 16.9126C18.1745 14.5268 19.9235 12.5523 22.2056 13.8328C24.0171 14.8493 23.3949 17.8019 22.0535 18.9668ZM14.7252 24.9219C16.4586 23.1885 13.4227 20.0248 11.6254 21.8221C10.5768 22.8707 11.2338 24.0704 12.0853 24.9219C12.8143 25.6509 13.9962 25.6509 14.7252 24.9219ZM22.3136 28.0504C23.563 30.5491 27.9542 28.3183 26.1103 25.9151C25.6289 25.2877 24.9621 25.1741 24.719 25.1467C23.191 24.9748 21.5159 26.455 22.3136 28.0504ZM22.354 35.5349C22.924 37.0065 24.3074 37.7528 25.8304 37.1727C27.1564 36.6675 27.3712 34.3114 26.7734 33.107C26.2192 31.9902 24.7866 31.6273 23.6588 32.0612C22.3433 32.5675 21.864 34.2748 22.3457 35.5135L22.354 35.5349ZM35.0493 35.9687C36.4269 35.281 39.0559 35.9198 39.0559 37.7278C39.0559 39.2244 37.178 41.1046 35.7022 41.3514C34.2757 41.59 32.4981 40.206 32.7271 38.7178C32.9062 37.5538 34.0532 36.466 35.0493 35.9687ZM24.5158 43.4443C23.6481 43.0971 22.9347 43.5074 22.8259 43.5701L22.82 43.5735C22.0547 44.0106 21.3305 44.9402 21.1844 45.8374C20.8689 47.7757 22.8916 48.2256 24.3649 48.1315C26.9065 47.9695 26.3766 44.1887 24.5158 43.4443ZM14.4861 43.631C15.1838 43.1796 15.5168 42.2985 15.2418 41.4735C14.6726 39.538 12.4107 39.2231 11.0705 40.7806C10.4274 41.528 10.4802 42.6386 11.1695 43.3222L11.18 43.3353L11.191 43.3487C12.0211 44.3814 13.5742 44.723 14.4861 43.631ZM7.64082 32.1322C8.70303 33.1944 9.70842 33.3922 11.1407 33.0484C13.4697 32.4895 11.7146 26.2702 7.64101 28.6221C6.3806 29.3498 6.96961 31.461 7.64082 32.1322Z" fill="white"/>
</svg>
