<svg width="30" height="31" viewBox="0 0 30 31" fill="none" xmlns="http://www.w3.org/2000/svg">
<path d="M29.061 12.6799C29.0376 12.6076 28.9927 12.5442 28.9325 12.498C28.8722 12.4518 28.7993 12.425 28.7235 12.4211L18.864 11.9284L15.3502 2.70487C15.2407 2.41312 14.76 2.41312 14.6498 2.70487L11.1353 11.9284L1.2765 12.4211C1.20059 12.425 1.12765 12.4518 1.06734 12.498C1.00702 12.5443 0.962178 12.6078 0.938755 12.6801C0.915331 12.7524 0.914431 12.8301 0.936173 12.9029C0.957915 12.9757 1.00127 13.0402 1.0605 13.0879L8.74575 19.2806L6.16875 28.8086C6.1275 28.9586 6.1845 29.1184 6.3105 29.2099C6.37207 29.2542 6.44555 29.279 6.52139 29.281C6.59723 29.283 6.67193 29.2621 6.73575 29.2211L15 23.8241L23.2642 29.2211C23.3281 29.2624 23.403 29.2834 23.479 29.2814C23.555 29.2794 23.6287 29.2545 23.6903 29.2099C23.7518 29.1653 23.7982 29.103 23.8234 29.0313C23.8486 28.9596 23.8514 28.8819 23.8313 28.8086L21.2535 19.2806L28.9387 13.0879C28.9981 13.0403 29.0416 12.9758 29.0634 12.9029C29.0853 12.83 29.0844 12.7522 29.061 12.6799V12.6799Z" fill="#3B5097"/>
</svg>
