<svg width="53" height="50" viewBox="0 0 53 50" fill="none" xmlns="http://www.w3.org/2000/svg">
<path fill-rule="evenodd" clip-rule="evenodd" d="M42.0602 3.59852C43.5946 1.55269 39.7859 -1.3039 38.2515 0.741923C36.7171 2.78772 40.5262 5.64431 42.0602 3.59852ZM28.3325 1.02495C23.7152 0.548917 18.5872 1.34366 14.1148 3.38165C9.63926 5.42102 5.68875 8.77154 3.67682 13.4951C2.13608 17.1124 0.79734 20.4496 0.736598 24.7892C0.676283 29.1008 1.8728 34.2175 4.95848 41.5312C6.74928 45.7756 12.0813 47.5665 16.1854 48.5495C20.9245 49.6844 26.152 49.9812 29.3471 49.5437C31.9632 49.1853 34.8739 48.626 37.3151 46.6421C41.4181 43.3079 45.1633 39.5432 47.3977 35.6001C49.6549 31.6163 50.4822 27.2104 48.2273 22.9588C47.6344 21.8406 46.7131 21.5554 45.6871 21.2379C45.2996 21.1179 44.8968 20.9933 44.4913 20.8174C40.3854 19.0354 37.9345 16.972 37.7437 15.774C37.5649 14.6515 37.7758 13.8546 37.9961 13.0228C38.1148 12.5754 38.2358 12.118 38.3004 11.5944C38.3795 10.9529 38.3705 9.44391 36.9452 8.67641C35.8446 8.08382 35.1412 6.92481 34.4853 5.84442C34.3237 5.57827 34.165 5.31686 34.004 5.0699C32.9383 3.43504 31.3754 1.33862 28.3325 1.02495ZM15.6629 6.77891C11.802 8.53817 8.66866 11.3023 7.11156 14.958C5.57948 18.5551 4.51914 21.2993 4.4696 24.8414C4.41964 28.4117 5.40159 32.9774 8.39822 40.0801C9.66274 43.0772 14.2542 44.2479 17.0549 44.9188C21.4507 45.9716 26.2021 46.2061 28.8404 45.8447C31.3941 45.4949 33.3839 45.0263 34.9609 43.7447C38.9216 40.5258 42.2517 37.1091 44.1494 33.7597C45.2903 31.7465 47.4526 25.7571 44.149 24.5793C37.1479 22.0833 35.3115 19.649 34.2964 17.2073C33.6208 15.5824 33.6937 13.8852 34.1743 12.2277C34.246 11.9804 34.3161 11.7389 34.458 11.5183C33.656 10.9506 33.0322 10.2606 32.5213 9.58694C32.2007 9.16425 31.8951 8.6517 31.578 8.11996C30.6696 6.59661 29.6673 4.91568 27.9496 4.73857C23.9878 4.33014 19.5268 5.01816 15.6629 6.77891ZM46.3102 11.0923C47.1797 9.04639 43.4975 6.84129 42.1069 8.57942C40.2383 10.9153 45.1708 13.7732 46.3102 11.0923ZM50.6375 5.43849C52.876 5.49307 53.579 1.16652 51.4014 0.544322C48.5484 -0.270833 47.7427 5.36786 50.6375 5.43849ZM50.3333 16.0063C52.4937 16.0402 53.1725 13.3603 51.0706 12.9749C48.3165 12.47 47.5392 15.9626 50.3333 16.0063ZM22.788 13.0038C21.1508 14.4255 19.5949 12.5002 19.3247 10.9496C18.909 8.56378 20.658 6.58929 22.94 7.86983C24.7515 8.88626 24.1293 11.8389 22.788 13.0038ZM15.4596 18.9589C17.193 17.2255 14.1571 14.0618 12.3598 15.8591C11.3113 16.9077 11.9683 18.1074 12.8198 18.9589C13.5488 19.6878 14.7307 19.6878 15.4596 18.9589ZM23.048 22.0874C24.2974 24.5861 28.6887 22.3553 26.8447 19.9521C26.3634 19.3247 25.6965 19.2111 25.4534 19.1837C23.9254 19.0118 22.2503 20.492 23.048 22.0874ZM23.0884 29.5719C23.6584 31.0435 25.0419 31.7898 26.5648 31.2097C27.8909 30.7045 28.1056 28.3484 27.5078 27.1439C26.9537 26.0272 25.521 25.6643 24.3932 26.0982C23.0778 26.6044 22.5984 28.3118 23.0802 29.5505L23.0884 29.5719ZM35.7837 30.0057C37.1613 29.318 39.7903 29.9568 39.7903 31.7648C39.7903 33.2613 37.9125 35.1416 36.4367 35.3884C35.0102 35.6269 33.2325 34.243 33.4615 32.7548C33.6406 31.5908 34.7877 30.503 35.7837 30.0057ZM25.2503 37.4813C24.3825 37.1341 23.6692 37.5444 23.5603 37.6071L23.5544 37.6105C22.7892 38.0476 22.0649 38.9772 21.9189 39.8743C21.6033 41.8127 23.6261 42.2626 25.0993 42.1685C27.6409 42.0065 27.1111 38.2257 25.2503 37.4813ZM15.2205 37.6679C15.9183 37.2166 16.2512 36.3355 15.9763 35.5105C15.407 33.575 13.1452 33.2601 11.8049 34.8175C11.1619 35.565 11.2146 36.6756 11.904 37.3592L11.9145 37.3723L11.9255 37.3857C12.7556 38.4184 14.3086 38.7599 15.2205 37.6679ZM8.37526 26.1692C9.43747 27.2314 10.4429 27.4292 11.8752 27.0854C14.2042 26.5264 12.449 20.3072 8.37545 22.6591C7.11504 23.3868 7.70404 25.498 8.37526 26.1692Z" fill="black"/>
</svg>
